<mxfile host="app.diagrams.net" agent="Mozilla/5.0 (Windows NT 10.0; Win64; x64) AppleWebKit/537.36 (KHTML, like Gecko) Chrome/131.0.0.0 Safari/537.36 Edg/131.0.0.0" version="25.0.3">
  <diagram name="Page-1" id="NejQVb2vE59KmXYK9EGG">
    <mxGraphModel dx="1042" dy="1665" grid="1" gridSize="10" guides="1" tooltips="1" connect="1" arrows="1" fold="1" page="1" pageScale="1" pageWidth="850" pageHeight="1100" math="0" shadow="0">
      <root>
        <mxCell id="0" />
        <mxCell id="1" parent="0" />
        <mxCell id="NJe64tZ7JJbRx-ARTqZW-2" style="edgeStyle=orthogonalEdgeStyle;rounded=0;orthogonalLoop=1;jettySize=auto;html=1;entryX=0;entryY=0.5;entryDx=0;entryDy=0;" edge="1" parent="1" source="NJe64tZ7JJbRx-ARTqZW-1" target="NJe64tZ7JJbRx-ARTqZW-3">
          <mxGeometry relative="1" as="geometry">
            <mxPoint x="150" y="200" as="targetPoint" />
            <Array as="points">
              <mxPoint x="130" y="200" />
              <mxPoint x="130" y="201" />
            </Array>
          </mxGeometry>
        </mxCell>
        <mxCell id="NJe64tZ7JJbRx-ARTqZW-1" value="Start" style="strokeWidth=2;html=1;shape=mxgraph.flowchart.start_2;whiteSpace=wrap;" vertex="1" parent="1">
          <mxGeometry x="10" y="150" width="100" height="100" as="geometry" />
        </mxCell>
        <mxCell id="NJe64tZ7JJbRx-ARTqZW-4" style="edgeStyle=orthogonalEdgeStyle;rounded=0;orthogonalLoop=1;jettySize=auto;html=1;" edge="1" parent="1" source="NJe64tZ7JJbRx-ARTqZW-3" target="NJe64tZ7JJbRx-ARTqZW-5">
          <mxGeometry relative="1" as="geometry">
            <mxPoint x="340" y="200" as="targetPoint" />
          </mxGeometry>
        </mxCell>
        <mxCell id="NJe64tZ7JJbRx-ARTqZW-3" value="phepTinh,a,b,ketQua" style="shape=parallelogram;html=1;strokeWidth=2;perimeter=parallelogramPerimeter;whiteSpace=wrap;rounded=1;arcSize=12;size=0.23;" vertex="1" parent="1">
          <mxGeometry x="140" y="170" width="160" height="60" as="geometry" />
        </mxCell>
        <mxCell id="NJe64tZ7JJbRx-ARTqZW-6" style="edgeStyle=orthogonalEdgeStyle;rounded=0;orthogonalLoop=1;jettySize=auto;html=1;" edge="1" parent="1" source="NJe64tZ7JJbRx-ARTqZW-5" target="NJe64tZ7JJbRx-ARTqZW-7">
          <mxGeometry relative="1" as="geometry">
            <mxPoint x="520" y="200" as="targetPoint" />
          </mxGeometry>
        </mxCell>
        <mxCell id="NJe64tZ7JJbRx-ARTqZW-18" style="edgeStyle=orthogonalEdgeStyle;rounded=0;orthogonalLoop=1;jettySize=auto;html=1;" edge="1" parent="1" source="NJe64tZ7JJbRx-ARTqZW-5" target="NJe64tZ7JJbRx-ARTqZW-19">
          <mxGeometry relative="1" as="geometry">
            <mxPoint x="400" y="90" as="targetPoint" />
          </mxGeometry>
        </mxCell>
        <mxCell id="NJe64tZ7JJbRx-ARTqZW-5" value="phepTinh=&quot;+&quot;?" style="strokeWidth=2;html=1;shape=mxgraph.flowchart.decision;whiteSpace=wrap;" vertex="1" parent="1">
          <mxGeometry x="350" y="150" width="100" height="100" as="geometry" />
        </mxCell>
        <mxCell id="NJe64tZ7JJbRx-ARTqZW-8" style="edgeStyle=orthogonalEdgeStyle;rounded=0;orthogonalLoop=1;jettySize=auto;html=1;" edge="1" parent="1" source="NJe64tZ7JJbRx-ARTqZW-7" target="NJe64tZ7JJbRx-ARTqZW-9">
          <mxGeometry relative="1" as="geometry">
            <mxPoint x="640" y="200" as="targetPoint" />
          </mxGeometry>
        </mxCell>
        <mxCell id="NJe64tZ7JJbRx-ARTqZW-20" style="edgeStyle=orthogonalEdgeStyle;rounded=0;orthogonalLoop=1;jettySize=auto;html=1;" edge="1" parent="1" source="NJe64tZ7JJbRx-ARTqZW-7">
          <mxGeometry relative="1" as="geometry">
            <mxPoint x="540" y="80" as="targetPoint" />
          </mxGeometry>
        </mxCell>
        <mxCell id="NJe64tZ7JJbRx-ARTqZW-7" value="phepTinh=&quot;-&quot;?" style="strokeWidth=2;html=1;shape=mxgraph.flowchart.decision;whiteSpace=wrap;" vertex="1" parent="1">
          <mxGeometry x="490" y="150" width="100" height="100" as="geometry" />
        </mxCell>
        <mxCell id="NJe64tZ7JJbRx-ARTqZW-10" style="edgeStyle=orthogonalEdgeStyle;rounded=0;orthogonalLoop=1;jettySize=auto;html=1;" edge="1" parent="1" source="NJe64tZ7JJbRx-ARTqZW-9" target="NJe64tZ7JJbRx-ARTqZW-11">
          <mxGeometry relative="1" as="geometry">
            <mxPoint x="800" y="200" as="targetPoint" />
          </mxGeometry>
        </mxCell>
        <mxCell id="NJe64tZ7JJbRx-ARTqZW-21" style="edgeStyle=orthogonalEdgeStyle;rounded=0;orthogonalLoop=1;jettySize=auto;html=1;" edge="1" parent="1" source="NJe64tZ7JJbRx-ARTqZW-9">
          <mxGeometry relative="1" as="geometry">
            <mxPoint x="690" y="80" as="targetPoint" />
          </mxGeometry>
        </mxCell>
        <mxCell id="NJe64tZ7JJbRx-ARTqZW-9" value="phepTinh=&quot;*&quot;?" style="strokeWidth=2;html=1;shape=mxgraph.flowchart.decision;whiteSpace=wrap;" vertex="1" parent="1">
          <mxGeometry x="640" y="150" width="100" height="100" as="geometry" />
        </mxCell>
        <mxCell id="NJe64tZ7JJbRx-ARTqZW-15" style="edgeStyle=orthogonalEdgeStyle;rounded=0;orthogonalLoop=1;jettySize=auto;html=1;" edge="1" parent="1" source="NJe64tZ7JJbRx-ARTqZW-11">
          <mxGeometry relative="1" as="geometry">
            <mxPoint x="930" y="200" as="targetPoint" />
          </mxGeometry>
        </mxCell>
        <mxCell id="NJe64tZ7JJbRx-ARTqZW-22" style="edgeStyle=orthogonalEdgeStyle;rounded=0;orthogonalLoop=1;jettySize=auto;html=1;" edge="1" parent="1" source="NJe64tZ7JJbRx-ARTqZW-11">
          <mxGeometry relative="1" as="geometry">
            <mxPoint x="840" y="80" as="targetPoint" />
          </mxGeometry>
        </mxCell>
        <mxCell id="NJe64tZ7JJbRx-ARTqZW-11" value="phepTinh=&quot;/&quot;?" style="strokeWidth=2;html=1;shape=mxgraph.flowchart.decision;whiteSpace=wrap;" vertex="1" parent="1">
          <mxGeometry x="790" y="150" width="100" height="100" as="geometry" />
        </mxCell>
        <mxCell id="NJe64tZ7JJbRx-ARTqZW-12" value="false" style="text;html=1;align=center;verticalAlign=middle;resizable=0;points=[];autosize=1;strokeColor=none;fillColor=none;" vertex="1" parent="1">
          <mxGeometry x="435" y="178" width="50" height="30" as="geometry" />
        </mxCell>
        <mxCell id="NJe64tZ7JJbRx-ARTqZW-13" value="false" style="text;html=1;align=center;verticalAlign=middle;resizable=0;points=[];autosize=1;strokeColor=none;fillColor=none;" vertex="1" parent="1">
          <mxGeometry x="585" y="168" width="50" height="30" as="geometry" />
        </mxCell>
        <mxCell id="NJe64tZ7JJbRx-ARTqZW-14" value="false" style="text;html=1;align=center;verticalAlign=middle;resizable=0;points=[];autosize=1;strokeColor=none;fillColor=none;" vertex="1" parent="1">
          <mxGeometry x="735" y="168" width="50" height="30" as="geometry" />
        </mxCell>
        <mxCell id="NJe64tZ7JJbRx-ARTqZW-31" style="edgeStyle=orthogonalEdgeStyle;rounded=0;orthogonalLoop=1;jettySize=auto;html=1;" edge="1" parent="1" source="NJe64tZ7JJbRx-ARTqZW-16" target="NJe64tZ7JJbRx-ARTqZW-32">
          <mxGeometry relative="1" as="geometry">
            <mxPoint x="1110" y="200" as="targetPoint" />
          </mxGeometry>
        </mxCell>
        <mxCell id="NJe64tZ7JJbRx-ARTqZW-16" value="fail" style="shape=parallelogram;html=1;strokeWidth=2;perimeter=parallelogramPerimeter;whiteSpace=wrap;rounded=1;arcSize=12;size=0.23;" vertex="1" parent="1">
          <mxGeometry x="920" y="170" width="100" height="60" as="geometry" />
        </mxCell>
        <mxCell id="NJe64tZ7JJbRx-ARTqZW-17" value="false" style="text;html=1;align=center;verticalAlign=middle;resizable=0;points=[];autosize=1;strokeColor=none;fillColor=none;" vertex="1" parent="1">
          <mxGeometry x="875" y="168" width="50" height="30" as="geometry" />
        </mxCell>
        <mxCell id="NJe64tZ7JJbRx-ARTqZW-30" style="edgeStyle=orthogonalEdgeStyle;rounded=0;orthogonalLoop=1;jettySize=auto;html=1;" edge="1" parent="1" source="NJe64tZ7JJbRx-ARTqZW-19">
          <mxGeometry relative="1" as="geometry">
            <mxPoint x="1080" y="200" as="targetPoint" />
            <Array as="points">
              <mxPoint x="400" y="-110" />
            </Array>
          </mxGeometry>
        </mxCell>
        <mxCell id="NJe64tZ7JJbRx-ARTqZW-19" value="ketQua==a+b" style="rounded=1;whiteSpace=wrap;html=1;absoluteArcSize=1;arcSize=14;strokeWidth=2;" vertex="1" parent="1">
          <mxGeometry x="350" y="-20" width="100" height="100" as="geometry" />
        </mxCell>
        <mxCell id="NJe64tZ7JJbRx-ARTqZW-33" style="edgeStyle=orthogonalEdgeStyle;rounded=0;orthogonalLoop=1;jettySize=auto;html=1;" edge="1" parent="1" source="NJe64tZ7JJbRx-ARTqZW-23">
          <mxGeometry relative="1" as="geometry">
            <mxPoint x="540" y="-110" as="targetPoint" />
          </mxGeometry>
        </mxCell>
        <mxCell id="NJe64tZ7JJbRx-ARTqZW-23" value="ketQua==a-b" style="rounded=1;whiteSpace=wrap;html=1;absoluteArcSize=1;arcSize=14;strokeWidth=2;" vertex="1" parent="1">
          <mxGeometry x="490" y="-20" width="100" height="100" as="geometry" />
        </mxCell>
        <mxCell id="NJe64tZ7JJbRx-ARTqZW-34" style="edgeStyle=orthogonalEdgeStyle;rounded=0;orthogonalLoop=1;jettySize=auto;html=1;" edge="1" parent="1" source="NJe64tZ7JJbRx-ARTqZW-24">
          <mxGeometry relative="1" as="geometry">
            <mxPoint x="690" y="-110" as="targetPoint" />
          </mxGeometry>
        </mxCell>
        <mxCell id="NJe64tZ7JJbRx-ARTqZW-24" value="ketQua==a*b" style="rounded=1;whiteSpace=wrap;html=1;absoluteArcSize=1;arcSize=14;strokeWidth=2;" vertex="1" parent="1">
          <mxGeometry x="640" y="-20" width="100" height="100" as="geometry" />
        </mxCell>
        <mxCell id="NJe64tZ7JJbRx-ARTqZW-35" style="edgeStyle=orthogonalEdgeStyle;rounded=0;orthogonalLoop=1;jettySize=auto;html=1;" edge="1" parent="1" source="NJe64tZ7JJbRx-ARTqZW-25">
          <mxGeometry relative="1" as="geometry">
            <mxPoint x="840" y="-110" as="targetPoint" />
          </mxGeometry>
        </mxCell>
        <mxCell id="NJe64tZ7JJbRx-ARTqZW-25" value="ketQua==a/b" style="rounded=1;whiteSpace=wrap;html=1;absoluteArcSize=1;arcSize=14;strokeWidth=2;" vertex="1" parent="1">
          <mxGeometry x="790" y="-20" width="100" height="100" as="geometry" />
        </mxCell>
        <mxCell id="NJe64tZ7JJbRx-ARTqZW-26" value="true" style="text;html=1;align=center;verticalAlign=middle;resizable=0;points=[];autosize=1;strokeColor=none;fillColor=none;" vertex="1" parent="1">
          <mxGeometry x="370" y="118" width="40" height="30" as="geometry" />
        </mxCell>
        <mxCell id="NJe64tZ7JJbRx-ARTqZW-27" value="true" style="text;html=1;align=center;verticalAlign=middle;resizable=0;points=[];autosize=1;strokeColor=none;fillColor=none;" vertex="1" parent="1">
          <mxGeometry x="500" y="108" width="40" height="30" as="geometry" />
        </mxCell>
        <mxCell id="NJe64tZ7JJbRx-ARTqZW-28" value="true" style="text;html=1;align=center;verticalAlign=middle;resizable=0;points=[];autosize=1;strokeColor=none;fillColor=none;" vertex="1" parent="1">
          <mxGeometry x="680" y="108" width="40" height="30" as="geometry" />
        </mxCell>
        <mxCell id="NJe64tZ7JJbRx-ARTqZW-29" value="true" style="text;html=1;align=center;verticalAlign=middle;resizable=0;points=[];autosize=1;strokeColor=none;fillColor=none;" vertex="1" parent="1">
          <mxGeometry x="840" y="118" width="40" height="30" as="geometry" />
        </mxCell>
        <mxCell id="NJe64tZ7JJbRx-ARTqZW-32" value="end" style="strokeWidth=2;html=1;shape=mxgraph.flowchart.start_2;whiteSpace=wrap;" vertex="1" parent="1">
          <mxGeometry x="1150" y="150" width="100" height="100" as="geometry" />
        </mxCell>
      </root>
    </mxGraphModel>
  </diagram>
</mxfile>
